# xmcd
#
# Track frame offsets:
#	150
#	12665
#	27057
#	41842
#	55665
#	67050
#	77597
#	88120
#	102830
#	113877
#	124005
#	133452
#	141830
#	150490
#	162340
#	177920
#	188435
#
# Disc length: 2688 seconds
#
# Revision: 961706351
# Processed by: cddbd v1.5.2PL0 Copyright (c) Steve Scherf et al.
# Submitted via: EZCDAudioConverter 7.1.5.1
#
DISCID=e40a7e11
DTITLE=Curtis Mayfield - Back To The World - Love [CD2] (UK)
DYEAR=1998
DGENRE=Soul, Funk
TTITLE0=Power To The People
TTITLE1=Underground
TTITLE2=Ghetto Child
TTITLE3=Readings In Astrology
TTITLE4=Suffer
TTITLE5=Miss Black America
TTITLE6=Woman's Got Soul
TTITLE7=I Loved And I Lost
TTITLE8=Talkin About My Baby
TTITLE9=You Must Believe Me
TTITLE10=Minstrel And Queen
TTITLE11=Romancing To The Folk Song
TTITLE12=Little Brown Boy
TTITLE13=I Thank Heaven
TTITLE14=Man's Temptation
TTITLE15=Little Boy Blue
TTITLE16=Love's Miracle
EXTD=
EXTT0=
EXTT1=
EXTT2=
EXTT3=
EXTT4=
EXTT5=
EXTT6=
EXTT7=
EXTT8=
EXTT9=
EXTT10=
EXTT11=
EXTT12=
EXTT13=
EXTT14=
EXTT15=
EXTT16=
PLAYORDER=
